<svg width="24" height="24" viewBox="0 0 24 24" fill="none" xmlns="http://www.w3.org/2000/svg">
<g clip-path="url(#clip0_194_27)">
<path d="M8.25 2C8.53732 2 8.81287 2.11121 9.01603 2.30917C9.2192 2.50712 9.33333 2.7756 9.33333 3.05556V19.9444C9.33333 20.2244 9.2192 20.4929 9.01603 20.6908C8.81287 20.8888 8.53732 21 8.25 21H6.08333C5.79602 21 5.52047 20.8888 5.3173 20.6908C5.11414 20.4929 5 20.2244 5 19.9444V3.05556C5 2.7756 5.11414 2.50712 5.3173 2.30917C5.52047 2.11121 5.79602 2 6.08333 2H8.25ZM16.9167 2C17.204 2 17.4795 2.11121 17.6827 2.30917C17.8859 2.50712 18 2.7756 18 3.05556V19.9444C18 20.2244 17.8859 20.4929 17.6827 20.6908C17.4795 20.8888 17.204 21 16.9167 21H14.75C14.4627 21 14.1871 20.8888 13.984 20.6908C13.7808 20.4929 13.6667 20.2244 13.6667 19.9444V3.05556C13.6667 2.7756 13.7808 2.50712 13.984 2.30917C14.1871 2.11121 14.4627 2 14.75 2H16.9167Z" fill="white"/>
</g>
<defs>
<clipPath id="clip0_194_27">
<rect width="24" height="24" fill="white" transform="translate(-0.00012207 0.000259399)"/>
</clipPath>
</defs>
</svg>
