    <svg width="24" height="24" viewBox="0 0 24 24" fill="none" xmlns="http://www.w3.org/2000/svg">
      <g clip-path="url(#clip0_22_714)">
      <path d="M20.8399 4.61024C20.3291 4.09924 19.7227 3.69388 19.0552 3.41732C18.3878 3.14076 17.6724 2.99841 16.9499 2.99841C16.2274 2.99841 15.512 3.14076 14.8445 3.41732C14.1771 3.69388 13.5706 4.09924 13.0599 4.61024L11.9999 5.67024L10.9399 4.61024C9.90818 3.57855 8.50891 2.99895 7.04987 2.99895C5.59084 2.99895 4.19157 3.57855 3.15987 4.61024C2.12818 5.64193 1.54858 7.04121 1.54858 8.50024C1.54858 9.95927 2.12818 11.3585 3.15987 12.3902L4.21987 13.4502L11.9999 21.2302L19.7799 13.4502L20.8399 12.3902C21.3509 11.8795 21.7562 11.2731 22.0328 10.6056C22.3094 9.93813 22.4517 9.22273 22.4517 8.50024C22.4517 7.77775 22.3094 7.06234 22.0328 6.39488C21.7562 5.72742 21.3509 5.12099 20.8399 4.61024V4.61024Z" stroke="white" stroke-width="1.3" stroke-linecap="round" stroke-linejoin="round"/>
      </g>
      <defs>
      <clipPath id="clip0_22_714">
      <rect width="24" height="24" fill="white" transform="translate(-0.00012207 0.000244141)"/>
      </clipPath>
      </defs>
      </svg>